<svg width="120" height="120" viewBox="0 0 120 120" fill="none" xmlns="http://www.w3.org/2000/svg">
<path d="M31.9929 90.7344C15.019 90.7344 1.25977 76.974 1.25977 60C1.25977 43.026 15.0202 29.2656 31.9941 29.2656C48.9681 29.2656 62.7285 43.026 62.7285 60C62.7273 76.974 48.9669 90.7344 31.9929 90.7344Z" fill="#FFB248"/>
<path d="M32.0782 42.9876C33.1846 43.8468 34.2562 44.7684 35.287 45.7596C35.4778 45.9408 35.665 46.128 35.851 46.314C41.4203 51.8832 44.9699 58.7124 46.5023 65.8932C46.5071 65.9124 46.5095 65.9304 46.5167 65.9496C46.5407 66.0672 46.5635 66.1848 46.5875 66.3048C46.6139 66.432 46.6391 66.5604 46.6631 66.6876C46.6895 66.828 46.7171 66.9696 46.7411 67.11C46.7651 67.2324 46.7855 67.3572 46.8071 67.4808C46.8851 67.944 46.9595 68.4084 47.0207 68.874C47.0375 69.0012 47.0555 69.132 47.0723 69.2616C47.0843 69.3768 47.0999 69.492 47.1143 69.6072C47.1563 69.9708 47.1923 70.3356 47.2271 70.7016C47.2619 71.0592 47.2859 71.4204 47.3051 71.778C47.3123 71.9004 47.3219 72.0252 47.3267 72.1488C47.3363 72.3624 47.3459 72.576 47.3543 72.792H43.1423L43.0811 70.8756L43.0763 70.8432C43.0223 70.2936 42.9587 69.7464 42.8819 69.204C42.8627 69.0768 42.8447 68.9508 42.8255 68.8236C42.8063 68.6964 42.7859 68.5704 42.7643 68.4432C42.7451 68.316 42.7223 68.19 42.7007 68.0652C42.6791 67.9452 42.6611 67.8252 42.6347 67.704C42.6155 67.5864 42.5903 67.4712 42.5687 67.3536C41.1119 59.97 37.3414 53.4048 32.0518 48.4464C26.7574 53.4048 22.9894 59.9688 21.5326 67.3536C21.5086 67.4712 21.4858 67.5864 21.4642 67.704C21.4426 67.824 21.4198 67.944 21.4006 68.0652C21.3766 68.19 21.3562 68.316 21.3346 68.4432C21.3154 68.5704 21.2926 68.6964 21.2758 68.8236C21.259 68.9484 21.2362 69.0768 21.2194 69.204C21.139 69.7512 21.0742 70.3008 21.0226 70.8528L21.0202 70.8744L20.9566 72.7908H16.7446C16.747 72.7368 16.7494 72.6828 16.7518 72.6288V72.6216C16.7566 72.4644 16.7638 72.3048 16.7734 72.1476C16.7806 72.0252 16.7854 71.9004 16.7926 71.7768C16.7998 71.6544 16.807 71.5296 16.8166 71.406C16.831 71.1708 16.8514 70.9344 16.873 70.6992C16.8826 70.5792 16.8946 70.4592 16.9078 70.338C16.9174 70.218 16.9294 70.098 16.945 69.9768V69.9672C16.957 69.8448 16.9726 69.7248 16.9846 69.6036C16.999 69.4884 17.017 69.3732 17.029 69.258C17.0458 69.1284 17.0614 68.9976 17.0782 68.8704C17.1418 68.4024 17.2126 67.938 17.2918 67.4772C17.3134 67.3548 17.3362 67.23 17.3578 67.1064C17.3842 66.966 17.4094 66.8244 17.4382 66.684C18.8734 59.214 22.477 52.0824 28.249 46.3104C28.435 46.1244 28.6246 45.9372 28.8154 45.756C29.8462 44.7648 30.9178 43.842 32.0242 42.984L32.0482 42.9624L32.0782 42.9876Z" fill="#0E2F7A"/>
<path d="M81.7523 58.092L80.7551 55.1424H75.7499L74.7935 58.092H72.1895L76.8695 44.8668H79.6571L84.3371 58.092H81.7523ZM76.4015 53.148H80.1047L78.2327 47.532L76.4015 53.148Z" fill="#E7EAF2"/>
<path d="M87.2049 44.4192V46.6368H84.4785V44.4192H87.2049ZM87.0621 47.9184V58.092H84.6201V47.9184H87.0621Z" fill="#E7EAF2"/>
<path d="M91.0907 53.9004C88.8527 53.5752 87.7331 52.6596 87.7331 50.8284C87.7331 48.8748 89.3807 47.6544 92.0471 47.6544C94.6307 47.6544 96.3203 48.8952 96.5435 50.9304H94.1627C93.9791 49.9128 93.3083 49.4448 92.0675 49.4448C90.9287 49.4448 90.1955 49.9332 90.1955 50.6856C90.1955 51.3972 90.6635 51.7032 91.5791 51.8244L93.5123 52.0284C95.7707 52.3128 96.7883 53.2896 96.7883 55.284C96.7883 57.1152 95.0999 58.3152 92.5151 58.3152C89.6867 58.3152 87.8963 57.054 87.6323 55.0596H90.1547C90.3587 56.0976 91.0907 56.5656 92.4947 56.5656C93.6539 56.5656 94.4279 56.0976 94.4279 55.3452C94.4279 54.6336 93.9395 54.2256 92.9219 54.1044L91.0907 53.9004Z" fill="#E7EAF2"/>
<path d="M102.789 58.092H101.731C99.961 58.092 98.659 57.1356 98.659 55.0812V49.9128H96.9502V47.9184H98.659V45.2736H101.101V47.9184H102.789V49.9128H101.101V54.7548C101.101 55.7112 101.467 55.9956 102.057 55.9956H102.789V58.092Z" fill="#E7EAF2"/>
<path d="M105.597 47.9184V49.5456C106.269 48.366 107.326 47.7144 108.324 47.7144H108.934V50.2368H108.344C106.818 50.2368 105.597 51.1524 105.597 52.4748V58.0908H103.155V47.9172H105.597V47.9184Z" fill="#E7EAF2"/>
<path d="M118.74 58.092H116.257C116.094 57.624 115.993 57.0336 115.952 56.3832C115.28 57.6036 114.06 58.3368 112.574 58.3368C110.621 58.3368 109.196 57.0144 109.196 55.1832C109.196 53.3928 110.295 52.3344 112.268 52.2324L114.913 52.0692C115.645 52.008 115.91 51.7644 115.91 51.2148V51.174C115.91 50.238 115.015 49.506 113.916 49.506C112.634 49.506 111.942 50.0556 111.8 51.1536H109.278C109.441 49.0176 111.252 47.634 113.917 47.634C116.541 47.634 118.352 49.2216 118.352 51.48V54.9792C118.353 56.2608 118.496 57.42 118.74 58.092ZM113.471 56.3424C114.854 56.3424 115.913 55.3044 115.913 53.9208V53.5548L113.166 53.718C112.189 53.7792 111.68 54.2064 111.68 54.9588C111.68 55.7928 112.392 56.3424 113.471 56.3424Z" fill="#E7EAF2"/>
<path d="M72.1499 75.4992V62.274H74.5919V73.2H80.3903V75.4992H72.1499Z" fill="#E7EAF2"/>
<path d="M90.1149 75.4992H87.6321C87.4689 75.0312 87.3681 74.4408 87.3273 73.7904C86.6553 75.0108 85.4349 75.744 83.9493 75.744C81.9957 75.744 80.5713 74.4216 80.5713 72.5904C80.5713 70.8 81.6705 69.7416 83.6433 69.6408L86.2881 69.4776C87.0201 69.4164 87.2853 69.1728 87.2853 68.6232V68.5824C87.2853 67.6464 86.3901 66.9144 85.2909 66.9144C84.0093 66.9144 83.3169 67.464 83.1753 68.562H80.6529C80.8161 66.426 82.6269 65.0424 85.2921 65.0424C87.9165 65.0424 89.7273 66.6288 89.7273 68.8884V72.3876C89.7273 73.668 89.8701 74.8284 90.1149 75.4992ZM84.8445 73.7496C86.2281 73.7496 87.2865 72.7116 87.2865 71.328V70.962L84.5397 71.1252C83.5629 71.1864 83.0541 71.6136 83.0541 72.366C83.0541 73.2 83.7669 73.7496 84.8445 73.7496Z" fill="#E7EAF2"/>
<path d="M92.9625 61.2564V67.014C93.6741 65.7528 94.8141 65.0196 96.2589 65.0196C98.8221 65.0196 100.532 67.1556 100.532 70.3704C100.532 73.6056 98.8233 75.762 96.2589 75.762C94.8141 75.762 93.6753 75.03 92.9625 73.7472V75.4968H90.5205V61.2564H92.9625ZM95.5053 67.1568C93.8985 67.1568 92.9625 68.3364 92.9625 70.3716C92.9625 72.4272 93.8985 73.6272 95.5053 73.6272C97.0929 73.6272 98.0277 72.4272 98.0277 70.3716C98.0289 68.3376 97.0929 67.1568 95.5053 67.1568Z" fill="#E7EAF2"/>
<path d="M104.355 71.3076C102.117 70.9824 100.998 70.0668 100.998 68.2356C100.998 66.282 102.645 65.0616 105.312 65.0616C107.895 65.0616 109.585 66.3024 109.808 68.3376H107.427C107.244 67.32 106.573 66.852 105.332 66.852C104.193 66.852 103.46 67.3404 103.46 68.0928C103.46 68.8044 103.928 69.1104 104.844 69.2316L106.777 69.4356C109.035 69.72 110.053 70.6968 110.053 72.6912C110.053 74.5224 108.365 75.7224 105.78 75.7224C102.951 75.7224 101.161 74.4612 100.897 72.4668H103.419C103.623 73.5048 104.355 73.9728 105.759 73.9728C106.919 73.9728 107.693 73.5048 107.693 72.7524C107.693 72.0408 107.204 71.6328 106.187 71.5116L104.355 71.3076Z" fill="#E7EAF2"/>
</svg>
