<svg width="162" height="48" viewBox="0 0 162 48" fill="none" xmlns="http://www.w3.org/2000/svg">
<rect width="162" height="48" rx="2" fill="#0035AE"/>
<path d="M32.8828 30L31.6172 26.6016H27.1406L25.8906 30H24.2266L28.5859 18.5312H30.2266L34.5625 30H32.8828ZM31.1719 25.2109L29.9688 21.8438C29.9323 21.7292 29.875 21.5573 29.7969 21.3281C29.724 21.099 29.6484 20.862 29.5703 20.6172C29.4974 20.3724 29.4375 20.1693 29.3906 20.0078C29.3385 20.2214 29.2786 20.4479 29.2109 20.6875C29.1432 20.9219 29.0755 21.1432 29.0078 21.3516C28.9453 21.5547 28.8932 21.7188 28.8516 21.8438L27.6328 25.2109H31.1719ZM40.1562 21.2344C41.2031 21.2344 42.0391 21.6068 42.6641 22.3516C43.2943 23.0911 43.6094 24.1979 43.6094 25.6719C43.6094 26.651 43.4635 27.474 43.1719 28.1406C42.8854 28.8021 42.4792 29.3047 41.9531 29.6484C41.4323 29.987 40.8203 30.1562 40.1172 30.1562C39.6745 30.1562 39.2865 30.099 38.9531 29.9844C38.6198 29.8646 38.3333 29.7083 38.0938 29.5156C37.8594 29.3177 37.6615 29.1068 37.5 28.8828H37.3984C37.4193 29.0859 37.4401 29.3229 37.4609 29.5938C37.487 29.8594 37.5 30.099 37.5 30.3125V33.8281H35.9219V21.3906H37.2109L37.4219 22.625H37.5C37.6615 22.3698 37.8594 22.138 38.0938 21.9297C38.3333 21.7161 38.6224 21.5469 38.9609 21.4219C39.2995 21.2969 39.6979 21.2344 40.1562 21.2344ZM39.7969 22.5312C39.2448 22.5312 38.8021 22.6406 38.4688 22.8594C38.1406 23.0729 37.8984 23.3932 37.7422 23.8203C37.5911 24.2474 37.5104 24.7839 37.5 25.4297V25.6797C37.5 26.3672 37.5729 26.9479 37.7188 27.4219C37.8646 27.8906 38.1068 28.25 38.4453 28.5C38.7839 28.7448 39.2396 28.8672 39.8125 28.8672C40.3021 28.8672 40.7083 28.7344 41.0312 28.4688C41.3594 28.2031 41.6016 27.8281 41.7578 27.3438C41.9193 26.8594 42 26.2969 42 25.6562C42 24.6823 41.8203 23.9193 41.4609 23.3672C41.1016 22.8099 40.5469 22.5312 39.7969 22.5312ZM50.0312 21.2344C51.0781 21.2344 51.9141 21.6068 52.5391 22.3516C53.1693 23.0911 53.4844 24.1979 53.4844 25.6719C53.4844 26.651 53.3385 27.474 53.0469 28.1406C52.7604 28.8021 52.3542 29.3047 51.8281 29.6484C51.3073 29.987 50.6953 30.1562 49.9922 30.1562C49.5495 30.1562 49.1615 30.099 48.8281 29.9844C48.4948 29.8646 48.2083 29.7083 47.9688 29.5156C47.7344 29.3177 47.5365 29.1068 47.375 28.8828H47.2734C47.2943 29.0859 47.3151 29.3229 47.3359 29.5938C47.362 29.8594 47.375 30.099 47.375 30.3125V33.8281H45.7969V21.3906H47.0859L47.2969 22.625H47.375C47.5365 22.3698 47.7344 22.138 47.9688 21.9297C48.2083 21.7161 48.4974 21.5469 48.8359 21.4219C49.1745 21.2969 49.5729 21.2344 50.0312 21.2344ZM49.6719 22.5312C49.1198 22.5312 48.6771 22.6406 48.3438 22.8594C48.0156 23.0729 47.7734 23.3932 47.6172 23.8203C47.4661 24.2474 47.3854 24.7839 47.375 25.4297V25.6797C47.375 26.3672 47.4479 26.9479 47.5938 27.4219C47.7396 27.8906 47.9818 28.25 48.3203 28.5C48.6589 28.7448 49.1146 28.8672 49.6875 28.8672C50.1771 28.8672 50.5833 28.7344 50.9062 28.4688C51.2344 28.2031 51.4766 27.8281 51.6328 27.3438C51.7943 26.8594 51.875 26.2969 51.875 25.6562C51.875 24.6823 51.6953 23.9193 51.3359 23.3672C50.9766 22.8099 50.4219 22.5312 49.6719 22.5312ZM57.25 30H55.6719V17.8438H57.25V30ZM58.6016 21.3906H60.2969L62.125 26.3516C62.2188 26.6068 62.3047 26.8568 62.3828 27.1016C62.4661 27.3411 62.5365 27.5755 62.5938 27.8047C62.6562 28.0286 62.7057 28.25 62.7422 28.4688H62.7969C62.8594 28.2031 62.9479 27.8802 63.0625 27.5C63.1771 27.1198 63.3021 26.7344 63.4375 26.3438L65.1875 21.3906H66.875L63.1562 31.2188C62.9531 31.7656 62.7057 32.2344 62.4141 32.625C62.1276 33.0208 61.7865 33.3229 61.3906 33.5312C60.9948 33.7448 60.526 33.8516 59.9844 33.8516C59.7344 33.8516 59.513 33.8359 59.3203 33.8047C59.1328 33.7786 58.9714 33.7474 58.8359 33.7109V32.4609C58.9505 32.487 59.0885 32.5104 59.25 32.5312C59.4167 32.5521 59.5885 32.5625 59.7656 32.5625C60.0938 32.5625 60.375 32.4974 60.6094 32.3672C60.849 32.2422 61.0521 32.0625 61.2188 31.8281C61.3906 31.5938 61.5339 31.3203 61.6484 31.0078L62.0391 29.9922L58.6016 21.3906ZM81.8047 30H79.8828L73.9688 20.6406H73.9062C73.9219 20.9219 73.9401 21.2318 73.9609 21.5703C73.9818 21.9036 73.9974 22.2552 74.0078 22.625C74.0234 22.9896 74.0339 23.3594 74.0391 23.7344V30H72.5703V18.5781H74.4766L80.3672 27.8906H80.4219C80.4115 27.6615 80.3984 27.3776 80.3828 27.0391C80.3672 26.7005 80.3516 26.3438 80.3359 25.9688C80.3255 25.5885 80.3203 25.2292 80.3203 24.8906V18.5781H81.8047V30ZM92.1953 25.6797C92.1953 26.388 92.1016 27.0208 91.9141 27.5781C91.7318 28.1302 91.4635 28.599 91.1094 28.9844C90.7604 29.3646 90.3385 29.6562 89.8438 29.8594C89.349 30.0573 88.7891 30.1562 88.1641 30.1562C87.5807 30.1562 87.0443 30.0573 86.5547 29.8594C86.0703 29.6562 85.651 29.3646 85.2969 28.9844C84.9427 28.599 84.6693 28.1302 84.4766 27.5781C84.2839 27.0208 84.1875 26.388 84.1875 25.6797C84.1875 24.737 84.349 23.9349 84.6719 23.2734C84.9948 22.6068 85.4557 22.1016 86.0547 21.7578C86.6589 21.4089 87.3776 21.2344 88.2109 21.2344C89.0026 21.2344 89.6979 21.4089 90.2969 21.7578C90.8958 22.1068 91.362 22.612 91.6953 23.2734C92.0286 23.9349 92.1953 24.737 92.1953 25.6797ZM85.7969 25.6797C85.7969 26.3411 85.8802 26.9115 86.0469 27.3906C86.2188 27.8646 86.4792 28.2292 86.8281 28.4844C87.1823 28.7396 87.638 28.8672 88.1953 28.8672C88.7422 28.8672 89.1927 28.7396 89.5469 28.4844C89.901 28.2292 90.1615 27.8646 90.3281 27.3906C90.4948 26.9115 90.5781 26.3411 90.5781 25.6797C90.5781 25.0234 90.4948 24.4609 90.3281 23.9922C90.1615 23.5234 89.901 23.1641 89.5469 22.9141C89.1979 22.6641 88.7422 22.5391 88.1797 22.5391C87.3568 22.5391 86.7526 22.8151 86.3672 23.3672C85.987 23.9141 85.7969 24.6849 85.7969 25.6797ZM101.398 29.9844L100.086 25.4844C100.029 25.2812 99.9661 25.0573 99.8984 24.8125C99.8359 24.5677 99.7734 24.3229 99.7109 24.0781C99.6484 23.8333 99.5911 23.6068 99.5391 23.3984C99.4922 23.1849 99.4557 23.013 99.4297 22.8828H99.3672C99.3411 23.013 99.3047 23.1849 99.2578 23.3984C99.2109 23.6068 99.1562 23.8359 99.0938 24.0859C99.0365 24.3307 98.974 24.5781 98.9062 24.8281C98.8438 25.0781 98.7812 25.3047 98.7188 25.5078L97.3438 29.9844H95.6094L93.2188 21.3828H94.8203L96 25.8906C96.0781 26.1927 96.1536 26.5052 96.2266 26.8281C96.2995 27.151 96.362 27.4557 96.4141 27.7422C96.4661 28.0286 96.5052 28.2734 96.5312 28.4766H96.5938C96.6198 28.3411 96.651 28.1745 96.6875 27.9766C96.7292 27.7734 96.7734 27.5625 96.8203 27.3438C96.8672 27.1198 96.9167 26.9036 96.9688 26.6953C97.026 26.487 97.0781 26.3047 97.125 26.1484L98.5781 21.3828H100.281L101.68 26.1406C101.747 26.3698 101.818 26.6276 101.891 26.9141C101.964 27.1953 102.029 27.474 102.086 27.75C102.143 28.026 102.182 28.263 102.203 28.4609H102.266C102.286 28.2839 102.326 28.0547 102.383 27.7734C102.44 27.4922 102.505 27.1875 102.578 26.8594C102.651 26.526 102.729 26.2031 102.812 25.8906L104.008 21.3828H105.586L103.18 29.9844H101.398Z" fill="white"/>
<path d="M132 20L136 24L132 28" stroke="white" stroke-width="1.5" stroke-linecap="round" stroke-linejoin="round"/>
<path d="M116 24H136" stroke="white" stroke-width="1.5" stroke-linecap="round" stroke-linejoin="round"/>
</svg>
