<svg width="130" height="130" viewBox="0 0 130 130" fill="none" xmlns="http://www.w3.org/2000/svg">
<rect x="0.5" y="0.5" width="129" height="129" rx="19.5" fill="#0E1118" stroke="#161B26"/>
<path d="M95.0615 83.1805H34.0054V83.141C34.0096 83.0492 34.0123 82.949 34.0165 82.8573V82.8404C34.0305 82.5214 34.0444 82.2025 34.0626 81.8807C34.0738 81.6366 34.0877 81.3854 34.1045 81.137C34.1184 80.8886 34.1324 80.6374 34.1533 80.3862C34.1812 79.9121 34.2203 79.4365 34.2649 78.9623C34.2859 78.7182 34.3068 78.4768 34.3277 78.2327C34.3529 77.9886 34.3766 77.7472 34.4045 77.5031V77.4848C34.4045 77.4848 34.4045 77.4847 34.4045 77.4805C34.4324 77.2364 34.4603 76.9922 34.4854 76.7481C34.5133 76.5138 34.5412 76.2838 34.5733 76.0509C34.6054 75.7885 34.6403 75.5302 34.671 75.2677C34.7966 74.3264 34.9404 73.3865 35.098 72.4594C35.1399 72.2082 35.1818 71.957 35.2278 71.7086C35.2809 71.4221 35.3325 71.1385 35.3883 70.8548C38.2533 55.7688 45.4527 41.3686 56.9782 29.7104C57.3522 29.3351 57.7276 28.9597 58.1099 28.5942C60.1543 26.6001 62.2839 24.7486 64.4804 23.024L64.5013 23.0424L64.5362 23.0142L64.5683 23.0424L64.5893 23.024C66.7844 24.7486 68.9139 26.6015 70.9597 28.5942C71.3421 28.9583 71.7203 29.3336 72.0915 29.7104C83.2095 40.9579 90.2986 54.7513 93.359 69.2502C93.366 69.2898 93.3729 69.325 93.3841 69.3631C93.4371 69.6002 93.486 69.8415 93.5306 70.0814C93.5837 70.3397 93.6325 70.5951 93.6813 70.8534C93.7372 71.1371 93.7902 71.4193 93.8418 71.7072C93.8879 71.9556 93.9297 72.2068 93.9716 72.458C94.1293 73.3894 94.273 74.3278 94.3986 75.2663C94.4335 75.5288 94.4656 75.787 94.5005 76.0495C94.5284 76.2838 94.5563 76.5138 94.5842 76.7467C94.668 77.4791 94.7419 78.22 94.8089 78.9595C94.8717 79.682 94.9247 80.4074 94.9666 81.1342C94.9847 81.3826 94.9987 81.6338 95.0085 81.8779C95.0294 82.3168 95.0475 82.7486 95.0615 83.1805Z" fill="#0E2F7A"/>
<path d="M34.0056 83.1409V83.1804H33.9385L34.0056 83.1409Z" fill="#0E2F7A"/>
<path d="M64.479 23.0268C62.2839 24.7513 60.1544 26.6043 58.1086 28.5969C57.7262 28.961 57.3522 29.3364 56.9768 29.7132C45.4513 41.3714 38.2519 55.7701 35.3869 70.8576C35.3311 71.1412 35.2781 71.4235 35.2265 71.7114C35.1804 71.9598 35.1385 72.211 35.0967 72.4622C34.939 73.3893 34.7952 74.3278 34.6697 75.2705C34.6376 75.533 34.6027 75.7912 34.572 76.0537C34.5399 76.288 34.512 76.518 34.4841 76.7509C34.4589 76.995 34.431 77.2392 34.4031 77.4833C34.4031 77.4875 34.4031 77.4875 34.4031 77.4875V77.5059C34.3752 77.75 34.3501 77.9913 34.3264 78.2355C34.3054 78.4796 34.2845 78.721 34.2636 78.9651C34.2175 79.4393 34.1798 79.9149 34.1519 80.389C34.131 80.6402 34.117 80.8914 34.1031 81.1398C34.0849 81.3882 34.071 81.6394 34.0612 81.8835C34.0431 82.2053 34.0291 82.5242 34.0152 82.8431V82.8601C34.011 82.9518 34.0082 83.052 34.004 83.1437V83.1833H33.937C33.9412 83.0774 33.944 82.9673 33.9482 82.8615V82.8446C33.9621 82.5256 33.9761 82.2067 33.9942 81.8849C34.0054 81.6408 34.0193 81.3896 34.0361 81.1412C34.0473 80.8928 34.064 80.6416 34.0849 80.3904C34.1128 79.9163 34.1519 79.4407 34.1938 78.9665C34.2147 78.7224 34.2398 78.481 34.2608 78.2369C34.2859 77.9928 34.3096 77.7514 34.3347 77.5073C34.3389 77.5002 34.3389 77.4932 34.3389 77.4889C34.3389 77.4889 34.3389 77.489 34.3389 77.4847C34.364 77.2406 34.3947 76.9964 34.4199 76.7523C34.4478 76.518 34.4757 76.288 34.5036 76.0551C34.5385 75.7927 34.5706 75.5344 34.6055 75.2719C34.7311 74.3306 34.872 73.3907 35.0325 72.4636C35.0743 72.2124 35.1162 71.9612 35.1623 71.7128C35.2153 71.4263 35.2669 71.1427 35.3228 70.859C38.1877 55.773 45.3871 41.3728 56.9126 29.7146C57.2838 29.3392 57.662 28.9639 58.0444 28.5983C60.0999 26.5944 62.2392 24.7316 64.4497 23L64.479 23.0268Z" fill="#0E2F7A"/>
<path d="M64.5878 23.0268L64.5669 23.0452L64.5347 23.0169L64.5529 23C64.5627 23.0085 64.5766 23.0155 64.5878 23.0268Z" fill="#0E2F7A"/>
<path d="M37.7496 96.6592C37.7496 100.348 35.634 102.801 32.4718 102.801H27V90.0461H32.0838C35.4791 90.0461 37.7496 92.695 37.7496 96.6592ZM29.3277 100.683H32.2778C34.2371 100.683 35.3633 99.2107 35.3633 96.6592C35.3633 93.8141 34.0822 92.1658 31.8899 92.1658H29.3277V100.683Z" fill="#0E2F7A"/>
<path d="M43.2213 92.7938C46.0542 92.7938 48.0721 94.8937 48.0721 97.8376V98.4656H40.9118C41.0667 100.173 41.9012 101.055 43.3567 101.055C44.5596 101.055 45.2965 100.486 45.4723 99.5635H47.9563C47.5683 101.82 45.9775 102.957 43.3386 102.957C40.3689 102.957 38.5073 100.996 38.5073 97.8559C38.5073 94.7357 40.3312 92.7938 43.2213 92.7938ZM40.9523 96.8356H45.57C45.4541 95.4427 44.5415 94.5593 43.2423 94.5593C41.9612 94.5593 41.1853 95.2861 40.9523 96.8356Z" fill="#0E2F7A"/>
<path d="M53.527 92.7938C56.3599 92.7938 58.3778 94.8937 58.3778 97.8376V98.4656H51.2174C51.3723 100.173 52.2069 101.055 53.6624 101.055C54.8653 101.055 55.6021 100.486 55.778 99.5635H58.262C57.874 101.82 56.2831 102.957 53.6442 102.957C50.6746 102.957 48.813 100.996 48.813 97.8559C48.8116 94.7357 50.6355 92.7938 53.527 92.7938ZM51.2551 96.8356H55.8742C55.7584 95.4427 54.8458 94.5593 53.5465 94.5593C52.2655 94.5593 51.4882 95.2861 51.2551 96.8356Z" fill="#0E2F7A"/>
<path d="M61.6377 92.9899V94.6185C62.3159 93.402 63.403 92.6949 64.7818 92.6949C67.2267 92.6949 68.8566 94.7553 68.8566 97.8558C68.8566 100.976 67.2267 103.056 64.7818 103.056C63.403 103.056 62.3173 102.349 61.6377 101.113V106H59.3086V92.9899H61.6377ZM64.0645 94.7553C62.5308 94.7553 61.6391 95.8928 61.6391 97.8558C61.6391 99.8372 62.5322 100.996 64.0645 100.996C65.5772 100.996 66.4703 99.8386 66.4703 97.8558C66.4703 95.8942 65.5772 94.7553 64.0645 94.7553Z" fill="#0E2F7A"/>
<path d="M78.928 92.2645H75.3387V102.802H73.0096V92.2645H69.4204V90.0475H78.928V92.2645Z" fill="#0E2F7A"/>
<path d="M88.5918 102.801H86.225C86.0701 102.349 85.9724 101.78 85.9334 101.152C85.2928 102.331 84.1276 103.036 82.7125 103.036C80.8495 103.036 79.4917 101.761 79.4917 99.9953C79.4917 98.2679 80.5397 97.2476 82.4223 97.1502L84.9453 96.9936C85.6445 96.9343 85.8957 96.6986 85.8957 96.1694V96.1299C85.8957 95.2267 85.0416 94.5211 83.9936 94.5211C82.7711 94.5211 82.1111 95.0503 81.9757 96.1101H79.5698C79.7247 94.0497 81.4524 92.7147 83.9936 92.7147C86.4971 92.7147 88.2248 94.2459 88.2248 96.4234V99.7991C88.2234 101.035 88.3587 102.154 88.5918 102.801ZM83.5652 101.114C84.8839 101.114 85.8929 100.114 85.8929 98.7788V98.426L83.2735 98.5826C82.3427 98.6419 81.8571 99.054 81.8571 99.7793C81.8585 100.584 82.5367 101.114 83.5652 101.114Z" fill="#0E2F7A"/>
<path d="M91.6968 89.0653V102.801H89.3677V89.0653H91.6968Z" fill="#0E2F7A"/>
<path d="M101.747 92.9899L97.9447 97.6413L102 102.802H99.2439L96.217 98.9947L95.169 100.27V102.802H92.8413V89.0653H95.169V97.7387L98.8364 92.9899H101.747Z" fill="#0E2F7A"/>
<path d="M77.1376 59.1783C77.1055 59.1783 77.072 59.1769 77.0399 59.1741C76.4957 59.1205 76.0994 58.6308 76.1524 58.0804C76.4552 54.9658 75.8189 51.8089 74.3606 49.1896C73.0111 46.7651 70.9932 44.8656 68.6781 43.8411C66.3225 42.7982 63.5831 42.6782 61.1605 43.5123C58.7937 44.3265 56.6628 46.0384 55.1584 48.333C53.608 50.6982 52.761 53.6421 52.7749 56.6212C52.7777 57.108 52.8014 57.5991 52.8489 58.0818C52.9019 58.6322 52.5042 59.1205 51.9613 59.1755C51.4171 59.2291 50.9342 58.8269 50.8798 58.2779C50.8268 57.7346 50.7989 57.1814 50.7961 56.6325C50.7807 53.261 51.7436 49.9221 53.5089 47.2294C55.2533 44.5693 57.7443 42.5766 60.5227 41.6198C63.4491 40.6122 66.6267 40.7505 69.4707 42.0093C72.1766 43.2074 74.5252 45.409 76.084 48.2088C77.7405 51.1823 78.4634 54.7583 78.1215 58.2779C78.0712 58.793 77.6414 59.1783 77.1376 59.1783Z" fill="#FFB248"/>
<path d="M54.8249 68.0818H52.0604C51.184 68.0818 50.4751 67.3635 50.4751 66.4786V62.1532C50.4751 61.267 51.1854 60.55 52.0604 60.55H54.8249C55.7013 60.55 56.4102 61.2684 56.4102 62.1532V66.4786C56.4116 67.3635 55.7013 68.0818 54.8249 68.0818Z" fill="#FFB248"/>
<path d="M78.5249 62.0093V66.6198C78.5249 67.3296 78.0239 67.9209 77.3624 68.0536V69.3434C77.3624 71.2189 76.1748 72.8546 74.4039 73.4148L70.3416 74.6976C70.2384 75.6262 69.4597 76.3474 68.5163 76.3474C67.5032 76.3474 66.6826 75.5175 66.6826 74.4916C66.6826 73.467 67.5032 72.6372 68.5163 72.6372C68.9378 72.6372 69.3285 72.7812 69.6369 73.0239C69.6509 73.0183 69.662 73.0126 69.676 73.0084L73.8681 71.6832C74.8854 71.3629 75.5692 70.4216 75.5692 69.3448V68.0818H74.0327C73.2345 68.0818 72.587 67.427 72.587 66.6198V62.0093C72.587 61.202 73.2345 60.5472 74.0327 60.5472H77.0791C77.8774 60.5472 78.5249 61.202 78.5249 62.0093Z" fill="#FFB248"/>
<path d="M70.5943 48.316H58.406C57.464 48.316 56.7007 49.088 56.7007 50.0406V57.2788C56.7007 58.2313 57.464 59.0019 58.406 59.0019H60.1922V61.4306C60.1922 61.9104 60.7197 62.1969 61.1161 61.933L65.5091 59.0005H70.5929C71.5335 59.0005 72.2968 58.2299 72.2968 57.2773V50.0391C72.2982 49.088 71.5349 48.316 70.5943 48.316ZM61.6464 54.2573C61.6464 54.62 61.3561 54.9121 60.9974 54.9121H59.8475C59.4889 54.9121 59.2 54.6186 59.2 54.2573V53.5065C59.2 53.1439 59.4903 52.8517 59.8475 52.8517H60.9974C61.3561 52.8517 61.6464 53.1453 61.6464 53.5065V54.2573ZM65.7226 54.2573C65.7226 54.62 65.4324 54.9121 65.0737 54.9121H63.9238C63.5652 54.9121 63.2763 54.6186 63.2763 54.2573V53.5065C63.2763 53.1439 63.5666 52.8517 63.9238 52.8517H65.0737C65.4324 52.8517 65.7226 53.1453 65.7226 53.5065V54.2573ZM69.7989 54.2573C69.7989 54.62 69.5086 54.9121 69.15 54.9121H68.0001C67.6414 54.9121 67.3512 54.6186 67.3512 54.2573V53.5065C67.3512 53.1439 67.6414 52.8517 68.0001 52.8517H69.15C69.5086 52.8517 69.7989 53.1453 69.7989 53.5065V54.2573Z" fill="#FFB248"/>
</svg>
