<svg width="130" height="130" viewBox="0 0 130 130" fill="none" xmlns="http://www.w3.org/2000/svg">
<rect x="0.5" y="0.5" width="129" height="129" rx="19.5" fill="#0E1118" stroke="#161B26"/>
<path d="M29.5993 88.3245V88.369H29.5225L29.5993 88.3245Z" fill="#0E2F7A"/>
<path d="M29.5993 88.3245V88.369H29.5225L29.5993 88.3245Z" fill="#0E2F7A"/>
<path d="M64.9709 31.0663L64.9538 31.0807L64.9268 31.0563L64.941 31.0419C64.951 31.0505 64.9623 31.0563 64.9709 31.0663Z" fill="#0E2F7A"/>
<path d="M29.0783 88.2109V88.257H29L29.0783 88.2109Z" fill="#0E2F7A"/>
<path d="M43.0247 98.1034H35.0631V102.305H42.36V105.019H35.0631V110.999H32.2109V95.3898H43.0261V98.1034H43.0247Z" fill="#0E2F7A"/>
<path d="M57.1672 95.3898V111H54.1485L47.065 99.5688V111H44.2129V95.3898H47.7781L54.315 106.244V95.3898H57.1672Z" fill="#0E2F7A"/>
<path d="M69.171 111L68.0068 107.517H62.1601L61.0429 111H58L63.4666 95.3898H66.723L72.1896 111H69.171ZM62.9201 105.164H67.2453L65.0592 98.5363L62.9201 105.164Z" fill="#0E2F7A"/>
<path d="M76.0153 107.782V111H72.8301V107.782H76.0153Z" fill="#0E2F7A"/>
<path d="M91.6324 111L90.4682 107.517H84.6215L83.5043 111H80.4614L85.9281 95.3898H89.1844L94.6511 111H91.6324ZM85.3801 105.164H89.7068L87.5207 98.5363L85.3801 105.164Z" fill="#0E2F7A"/>
<path d="M98.3116 95.3898V111H95.4595V95.3898H98.3116Z" fill="#0E2F7A"/>
<path d="M65.2599 18C65.2713 18.0129 65.351 18.0705 65.3623 18.082C67.9299 20.0967 70.4205 22.2624 72.8116 24.5921C73.2585 25.0178 73.7011 25.4564 74.1337 25.895C87.1364 39.0361 95.4253 55.154 99.0033 72.0945C99.0119 72.139 99.0204 72.1807 99.0332 72.2267C99.0944 72.5043 99.1514 72.7847 99.204 73.0666C99.2652 73.3671 99.3236 73.6663 99.3805 73.9683C99.446 74.299 99.5086 74.6312 99.5698 74.9648C99.6239 75.2553 99.6723 75.5487 99.7221 75.8421C99.9057 76.9307 100.074 78.0279 100.222 79.1237C100.261 79.4315 100.298 79.732 100.341 80.0383C100.374 80.3101 100.407 80.5805 100.439 80.8523C100.538 81.7094 100.623 82.5737 100.701 83.4394C100.774 84.2821 100.835 85.1306 100.885 85.9805C100.906 86.2695 100.922 86.5629 100.935 86.849C100.965 87.3581 100.984 87.8615 101 88.3677H29.5993V88.3231L29.5225 88.3677C29.5267 88.2425 29.531 88.1145 29.5338 87.9909V87.9693C29.5509 87.5954 29.5666 87.2244 29.5879 86.8476C29.5993 86.5614 29.6164 86.2681 29.6377 85.979C29.6491 85.6885 29.6705 85.3952 29.6961 85.1018C29.7288 84.5467 29.773 83.993 29.8228 83.438C29.847 83.1518 29.8768 82.8699 29.8996 82.5852C29.9281 82.3004 29.958 82.0186 29.9864 81.7338C29.9907 81.7252 29.9907 81.7166 29.9907 81.7123C29.9907 81.7123 29.9907 81.7123 29.9907 81.7079C30.0192 81.4232 30.0562 81.137 30.0846 80.8509C30.1174 80.5791 30.1501 80.3087 30.1828 80.0369C30.2227 79.7292 30.2597 79.4286 30.3024 79.1223C30.4504 78.0222 30.6127 76.9249 30.8019 75.8406C30.8518 75.5473 30.9002 75.2539 30.9542 74.9634C31.0154 74.6298 31.0766 74.2976 31.1421 73.9668C34.4924 56.3404 42.9122 39.515 56.3889 25.8936C56.8244 25.4535 57.2656 25.0163 57.711 24.5907C60.1149 22.2481 62.6184 20.0723 65.2015 18.0475" fill="#0E2F7A"/>
<path d="M65.2597 72.3361C71.4874 72.3361 76.536 67.2349 76.536 60.9423C76.536 54.6497 71.4874 49.5485 65.2597 49.5485C59.032 49.5485 53.9834 54.6497 53.9834 60.9423C53.9834 67.2349 59.032 72.3361 65.2597 72.3361Z" fill="#FFB248"/>
<path d="M71.6087 54.402C71.5518 54.7068 71.4223 54.9484 71.223 55.1267C71.0238 55.3065 70.759 55.364 70.4317 55.3007C70.2239 55.2605 70.0503 55.1814 69.9094 55.0635C69.7685 54.9455 69.6461 54.7989 69.5393 54.6249C69.4326 54.4508 69.3415 54.2581 69.2632 54.0467C69.185 53.8354 69.1166 53.6657 69.0583 53.5348C68.6057 53.4686 68.2001 53.7189 67.8414 54.2812C67.5895 54.6781 67.3632 55.2677 67.164 56.0471L65.5344 64.7244C65.2497 66.243 64.6292 67.3978 63.6728 68.1902C62.7164 68.9825 61.6532 69.2659 60.4819 69.0415C59.887 68.9279 59.46 68.7223 59.2038 68.4289C58.9476 68.1341 58.8508 67.8177 58.9135 67.4798C58.9704 67.1749 59.0999 66.9333 59.2992 66.755C59.4984 66.5752 59.7631 66.5177 60.0905 66.581C60.2983 66.6212 60.4719 66.7003 60.6128 66.8183C60.7537 66.9362 60.8761 67.0829 60.9829 67.2569C61.0882 67.4309 61.1807 67.6236 61.259 67.835C61.3372 68.0464 61.4056 68.2161 61.4639 68.3469C61.9165 68.4131 62.3221 68.1628 62.6808 67.6006C62.9327 67.2037 63.159 66.6169 63.3582 65.8389L64.9893 57.1573C65.2739 55.6387 65.8944 54.4839 66.8509 53.6915C67.8073 52.8992 68.8704 52.6159 70.0417 52.8402C70.6367 52.9538 71.0636 53.1595 71.3198 53.4528C71.5746 53.7476 71.6713 54.064 71.6087 54.402Z" fill="#0E2F7A"/>
<path d="M68.966 61.8785L68.1732 58.6687C68.112 58.4214 68.3696 58.2172 68.5931 58.3351L70.7678 59.4913C70.9229 59.5733 70.9713 59.7732 70.8731 59.9184L69.4897 61.972C69.3488 62.1848 69.0272 62.1273 68.966 61.8785Z" fill="#0E2F7A"/>
<path d="M68.8462 61.0803L62.5484 62.5961C62.2552 62.6665 61.9592 62.4839 61.8894 62.1862L61.7884 61.7548C61.7187 61.4586 61.8994 61.1594 62.194 61.089L68.4918 59.5732L68.8462 61.0803Z" fill="#0E2F7A"/>
<path d="M74.5164 74.8527L74.2503 74.6442C73.6369 74.1653 72.9736 73.7267 72.2819 73.3413L71.5888 72.9545L72.2663 72.5403C76.3552 70.0352 78.7961 65.662 78.7961 60.8402C78.7961 53.2989 72.7246 47.1641 65.2611 47.1641C57.7977 47.1641 51.7262 53.2989 51.7262 60.8402C51.7262 65.5009 54.0446 69.7965 57.9286 72.3318L58.0154 72.3994L58.5306 72.8495L57.9485 73.1831C57.2483 73.5426 56.5652 73.9568 55.9176 74.4127L55.6486 74.6025L55.3839 74.4055C51.0658 71.1986 48.5894 66.2531 48.5894 60.8387C48.5894 51.5502 56.0684 43.9932 65.2611 43.9932C74.4538 43.9932 81.9329 51.5502 81.9329 60.8387C81.9329 66.3307 79.2643 71.4948 74.7939 74.6557L74.5164 74.8527ZM73.3807 72.9171C73.7792 73.1644 74.1663 73.4261 74.5378 73.7037C78.5997 70.7024 81.0163 65.918 81.0163 60.8402C81.0163 52.0622 73.9485 44.9207 65.2611 44.9207C56.5737 44.9207 49.5059 52.0622 49.5059 60.8402C49.5059 65.8475 51.7475 70.4292 55.6685 73.465C56.0571 73.2018 56.457 72.953 56.864 72.7215C53.0668 69.9863 50.811 65.5915 50.811 60.8416C50.811 52.7898 57.2939 46.2409 65.2611 46.2409C73.2284 46.2409 79.7112 52.7913 79.7112 60.8416C79.7112 65.731 77.3586 70.1905 73.3807 72.9171Z" fill="#FFB248"/>
<path d="M65.4576 48.6224H65.0633C64.7929 48.6224 64.5737 48.4009 64.5737 48.1277V44.4908C64.5737 44.2176 64.7929 43.9961 65.0633 43.9961H65.4576C65.728 43.9961 65.9472 44.2176 65.9472 44.4908V48.1277C65.9472 48.4009 65.728 48.6224 65.4576 48.6224Z" fill="#FFB248"/>
<path d="M75.0016 53.6383L74.7226 53.3564C74.5319 53.1637 74.5319 52.8488 74.7226 52.6561L77.2674 50.0848C77.4581 49.8921 77.7698 49.8921 77.9605 50.0848L78.2394 50.3667C78.4302 50.5594 78.4302 50.8743 78.2394 51.067L75.6947 53.6383C75.5026 53.8324 75.1923 53.8324 75.0016 53.6383Z" fill="#FFB248"/>
<path d="M55.798 53.3584L55.5191 53.6403C55.3284 53.833 55.0167 53.833 54.826 53.6403L52.2812 51.069C52.0905 50.8763 52.0905 50.5614 52.2812 50.3687L52.5602 50.0868C52.7509 49.8941 53.0626 49.8941 53.2533 50.0868L55.798 52.6581C55.9887 52.8508 55.9887 53.1643 55.798 53.3584Z" fill="#FFB248"/>
<path d="M76.9332 63.3396L76.983 62.9455C77.0171 62.6737 77.2619 62.4825 77.5309 62.5156L81.1018 62.97C81.3708 63.0045 81.5601 63.2518 81.5274 63.5236L81.4776 63.9177C81.4434 64.1895 81.1986 64.3807 80.9296 64.3477L77.3587 63.8932C77.0897 63.8587 76.899 63.6114 76.9332 63.3396Z" fill="#FFB248"/>
<path d="M53.5876 63.3396L53.5378 62.9455C53.5037 62.6737 53.2589 62.4825 52.9899 62.5156L49.419 62.97C49.15 63.0045 48.9607 63.2518 48.9934 63.5236L49.0432 63.9177C49.0774 64.1895 49.3222 64.3807 49.5912 64.3477L53.1621 63.8932C53.4311 63.8587 53.6218 63.6114 53.5876 63.3396Z" fill="#FFB248"/>
<path d="M76.4819 51.8623L77.4085 50.9362L78.6566 51.6092L80.6193 55.6545L81.4049 58.8268L81.5017 63.7206L79.2288 63.4316L79.1277 59.6998L78.4218 55.3367L76.4819 51.8623Z" fill="#FFB248"/>
</svg>
