<svg width="135" height="46" viewBox="0 0 135 46" fill="none" xmlns="http://www.w3.org/2000/svg">
<rect width="135" height="46" rx="2" fill="#0035AE"/>
<path d="M30.5234 22.9062H34.6484V28.5391C34.0495 28.7422 33.4323 28.8958 32.7969 29C32.1615 29.1042 31.4479 29.1562 30.6562 29.1562C29.4792 29.1562 28.487 28.9219 27.6797 28.4531C26.8724 27.9844 26.2578 27.3125 25.8359 26.4375C25.4193 25.5625 25.2109 24.5104 25.2109 23.2812C25.2109 22.099 25.4427 21.0677 25.9062 20.1875C26.3698 19.3073 27.0443 18.625 27.9297 18.1406C28.8151 17.6562 29.8828 17.4141 31.1328 17.4141C31.7578 17.4141 32.3568 17.474 32.9297 17.5938C33.5078 17.7135 34.0391 17.8802 34.5234 18.0938L33.9453 19.4453C33.5391 19.263 33.0885 19.1094 32.5938 18.9844C32.1042 18.8542 31.5964 18.7891 31.0703 18.7891C30.1953 18.7891 29.4427 18.974 28.8125 19.3438C28.1875 19.7135 27.7057 20.2344 27.3672 20.9062C27.0339 21.5781 26.8672 22.375 26.8672 23.2969C26.8672 24.1979 27.0078 24.9844 27.2891 25.6562C27.5703 26.3281 28.0104 26.8516 28.6094 27.2266C29.2083 27.6016 29.9792 27.7891 30.9219 27.7891C31.3958 27.7891 31.7995 27.763 32.1328 27.7109C32.4714 27.6589 32.7812 27.5964 33.0625 27.5234V24.3047H30.5234V22.9062ZM40.5781 20.2344C41.3281 20.2344 41.9714 20.3958 42.5078 20.7188C43.0443 21.0365 43.4557 21.487 43.7422 22.0703C44.0286 22.6536 44.1719 23.3411 44.1719 24.1328V25.0234H38.3281C38.3438 25.9453 38.5807 26.6536 39.0391 27.1484C39.4974 27.638 40.1406 27.8828 40.9688 27.8828C41.5156 27.8828 42.0026 27.8307 42.4297 27.7266C42.8568 27.6224 43.2995 27.4688 43.7578 27.2656V28.5859C43.3255 28.7839 42.8906 28.9271 42.4531 29.0156C42.0208 29.1094 41.5026 29.1562 40.8984 29.1562C40.0651 29.1562 39.3333 28.9896 38.7031 28.6562C38.0781 28.3229 37.5911 27.8307 37.2422 27.1797C36.8932 26.5234 36.7188 25.7161 36.7188 24.7578C36.7188 23.8099 36.8776 23 37.1953 22.3281C37.513 21.651 37.9609 21.1328 38.5391 20.7734C39.1172 20.4141 39.7969 20.2344 40.5781 20.2344ZM40.5703 21.4531C39.9349 21.4531 39.4245 21.6615 39.0391 22.0781C38.6536 22.4896 38.4271 23.0807 38.3594 23.8516H42.5938C42.5885 23.3776 42.513 22.9609 42.3672 22.6016C42.2214 22.2422 42 21.9609 41.7031 21.7578C41.4115 21.5547 41.0339 21.4531 40.5703 21.4531ZM49.3125 27.8828C49.5365 27.8828 49.763 27.8646 49.9922 27.8281C50.2214 27.7865 50.4193 27.7344 50.5859 27.6719V28.875C50.4089 28.9531 50.1719 29.0182 49.875 29.0703C49.5833 29.1276 49.2839 29.1562 48.9766 29.1562C48.5078 29.1562 48.0833 29.0755 47.7031 28.9141C47.3229 28.7526 47.0182 28.4766 46.7891 28.0859C46.5651 27.6953 46.4531 27.1536 46.4531 26.4609V21.6016H45.2578V20.875L46.5078 20.2969L47.0625 18.4375H48.0312V20.3906H50.5234V21.6016H48.0312V26.4375C48.0312 26.9219 48.1458 27.2839 48.375 27.5234C48.6094 27.763 48.9219 27.8828 49.3125 27.8828ZM63.2031 25.9297C63.2031 26.6068 63.0339 27.1875 62.6953 27.6719C62.362 28.151 61.8906 28.5182 61.2812 28.7734C60.6719 29.0286 59.9479 29.1562 59.1094 29.1562C58.6875 29.1562 58.2839 29.1328 57.8984 29.0859C57.5182 29.0443 57.1641 28.9818 56.8359 28.8984C56.5078 28.8151 56.2109 28.7109 55.9453 28.5859V27.0703C56.3776 27.2474 56.8776 27.4141 57.4453 27.5703C58.013 27.7214 58.599 27.7969 59.2031 27.7969C59.7292 27.7969 60.1693 27.7266 60.5234 27.5859C60.8828 27.4401 61.1536 27.237 61.3359 26.9766C61.5182 26.7161 61.6094 26.4036 61.6094 26.0391C61.6094 25.6745 61.5208 25.3698 61.3438 25.125C61.1667 24.875 60.8854 24.6458 60.5 24.4375C60.1198 24.2292 59.6198 24.0078 59 23.7734C58.5677 23.6172 58.1745 23.4401 57.8203 23.2422C57.4661 23.0391 57.1589 22.8073 56.8984 22.5469C56.6432 22.2865 56.4453 21.9818 56.3047 21.6328C56.1641 21.2786 56.0938 20.8724 56.0938 20.4141C56.0938 19.7839 56.2474 19.2448 56.5547 18.7969C56.8672 18.349 57.3021 18.0078 57.8594 17.7734C58.4167 17.5339 59.0625 17.4141 59.7969 17.4141C60.401 17.4141 60.9635 17.474 61.4844 17.5938C62.0104 17.7135 62.5104 17.8776 62.9844 18.0859L62.4766 19.4141C62.0339 19.2318 61.5885 19.0833 61.1406 18.9688C60.6927 18.8542 60.2292 18.7969 59.75 18.7969C59.3073 18.7969 58.9323 18.862 58.625 18.9922C58.3229 19.1224 58.0911 19.3073 57.9297 19.5469C57.7734 19.7865 57.6953 20.0703 57.6953 20.3984C57.6953 20.7682 57.7786 21.0755 57.9453 21.3203C58.112 21.5651 58.375 21.7865 58.7344 21.9844C59.0938 22.1823 59.5625 22.3932 60.1406 22.6172C60.7917 22.8672 61.3438 23.1328 61.7969 23.4141C62.2552 23.6953 62.6042 24.0339 62.8438 24.4297C63.0833 24.8255 63.2031 25.3255 63.2031 25.9297ZM68.2656 27.8828C68.4896 27.8828 68.7161 27.8646 68.9453 27.8281C69.1745 27.7865 69.3724 27.7344 69.5391 27.6719V28.875C69.362 28.9531 69.125 29.0182 68.8281 29.0703C68.5365 29.1276 68.237 29.1562 67.9297 29.1562C67.4609 29.1562 67.0365 29.0755 66.6562 28.9141C66.276 28.7526 65.9714 28.4766 65.7422 28.0859C65.5182 27.6953 65.4062 27.1536 65.4062 26.4609V21.6016H64.2109V20.875L65.4609 20.2969L66.0156 18.4375H66.9844V20.3906H69.4766V21.6016H66.9844V26.4375C66.9844 26.9219 67.099 27.2839 67.3281 27.5234C67.5625 27.763 67.875 27.8828 68.2656 27.8828ZM74.5781 20.2422C75.6406 20.2422 76.4349 20.4792 76.9609 20.9531C77.487 21.4219 77.75 22.1641 77.75 23.1797V29H76.625L76.3203 27.75H76.2578C76.0182 28.0625 75.7682 28.3229 75.5078 28.5312C75.2474 28.7396 74.9453 28.8958 74.6016 29C74.263 29.1042 73.849 29.1562 73.3594 29.1562C72.8385 29.1562 72.375 29.0625 71.9688 28.875C71.5625 28.6875 71.2422 28.4062 71.0078 28.0312C70.7786 27.651 70.6641 27.1693 70.6641 26.5859C70.6641 25.7109 71 25.0469 71.6719 24.5938C72.3438 24.1406 73.362 23.8932 74.7266 23.8516L76.2109 23.7891V23.3047C76.2109 22.6328 76.0599 22.1589 75.7578 21.8828C75.4609 21.6068 75.0443 21.4688 74.5078 21.4688C74.0651 21.4688 73.6406 21.5339 73.2344 21.6641C72.8281 21.7891 72.4375 21.9401 72.0625 22.1172L71.5625 20.9766C71.9688 20.7682 72.4297 20.5938 72.9453 20.4531C73.4661 20.3125 74.0104 20.2422 74.5781 20.2422ZM76.1953 24.8203L74.9922 24.875C73.9974 24.9115 73.2969 25.0781 72.8906 25.375C72.4896 25.6667 72.2891 26.0755 72.2891 26.6016C72.2891 27.0599 72.4271 27.3958 72.7031 27.6094C72.9792 27.8229 73.3438 27.9297 73.7969 27.9297C74.4948 27.9297 75.0677 27.7344 75.5156 27.3438C75.9688 26.9479 76.1953 26.3646 76.1953 25.5938V24.8203ZM84.5156 20.2344C84.6719 20.2344 84.8411 20.2448 85.0234 20.2656C85.2057 20.2812 85.362 20.3021 85.4922 20.3281L85.3281 21.7891C85.2031 21.7578 85.0573 21.7318 84.8906 21.7109C84.7292 21.6901 84.5781 21.6797 84.4375 21.6797C84.1042 21.6797 83.7865 21.7422 83.4844 21.8672C83.1823 21.9922 82.9167 22.1745 82.6875 22.4141C82.4583 22.6484 82.2786 22.9375 82.1484 23.2812C82.0182 23.6198 81.9531 24.0078 81.9531 24.4453V29H80.375V20.3906H81.6406L81.8281 21.9453H81.8984C82.0755 21.6328 82.2891 21.3464 82.5391 21.0859C82.7943 20.8255 83.0859 20.6198 83.4141 20.4688C83.7474 20.3125 84.1146 20.2344 84.5156 20.2344ZM90.0938 27.8828C90.3177 27.8828 90.5443 27.8646 90.7734 27.8281C91.0026 27.7865 91.2005 27.7344 91.3672 27.6719V28.875C91.1901 28.9531 90.9531 29.0182 90.6562 29.0703C90.3646 29.1276 90.0651 29.1562 89.7578 29.1562C89.2891 29.1562 88.8646 29.0755 88.4844 28.9141C88.1042 28.7526 87.7995 28.4766 87.5703 28.0859C87.3464 27.6953 87.2344 27.1536 87.2344 26.4609V21.6016H86.0391V20.875L87.2891 20.2969L87.8438 18.4375H88.8125V20.3906H91.3047V21.6016H88.8125V26.4375C88.8125 26.9219 88.9271 27.2839 89.1562 27.5234C89.3906 27.763 89.7031 27.8828 90.0938 27.8828ZM96.4844 20.2344C97.2344 20.2344 97.8776 20.3958 98.4141 20.7188C98.9505 21.0365 99.362 21.487 99.6484 22.0703C99.9349 22.6536 100.078 23.3411 100.078 24.1328V25.0234H94.2344C94.25 25.9453 94.487 26.6536 94.9453 27.1484C95.4036 27.638 96.0469 27.8828 96.875 27.8828C97.4219 27.8828 97.9089 27.8307 98.3359 27.7266C98.763 27.6224 99.2057 27.4688 99.6641 27.2656V28.5859C99.2318 28.7839 98.7969 28.9271 98.3594 29.0156C97.9271 29.1094 97.4089 29.1562 96.8047 29.1562C95.9714 29.1562 95.2396 28.9896 94.6094 28.6562C93.9844 28.3229 93.4974 27.8307 93.1484 27.1797C92.7995 26.5234 92.625 25.7161 92.625 24.7578C92.625 23.8099 92.7839 23 93.1016 22.3281C93.4193 21.651 93.8672 21.1328 94.4453 20.7734C95.0234 20.4141 95.7031 20.2344 96.4844 20.2344ZM96.4766 21.4531C95.8411 21.4531 95.3307 21.6615 94.9453 22.0781C94.5599 22.4896 94.3333 23.0807 94.2656 23.8516H98.5C98.4948 23.3776 98.4193 22.9609 98.2734 22.6016C98.1276 22.2422 97.9062 21.9609 97.6094 21.7578C97.3177 21.5547 96.9401 21.4531 96.4766 21.4531ZM105.195 29.1562C104.143 29.1562 103.302 28.7839 102.672 28.0391C102.047 27.2943 101.734 26.1901 101.734 24.7266C101.734 23.2474 102.052 22.1302 102.688 21.375C103.328 20.6146 104.177 20.2344 105.234 20.2344C105.677 20.2344 106.065 20.2943 106.398 20.4141C106.732 20.5339 107.018 20.6927 107.258 20.8906C107.503 21.0885 107.706 21.3125 107.867 21.5625H107.961C107.935 21.401 107.909 21.1745 107.883 20.8828C107.857 20.5911 107.844 20.3359 107.844 20.1172V16.8438H109.414V29H108.172L107.914 27.8047H107.844C107.688 28.0547 107.487 28.2839 107.242 28.4922C107.003 28.6953 106.714 28.8568 106.375 28.9766C106.042 29.0964 105.648 29.1562 105.195 29.1562ZM105.562 27.875C106.411 27.875 107.01 27.6302 107.359 27.1406C107.714 26.651 107.893 25.9245 107.898 24.9609V24.7188C107.898 23.6927 107.729 22.9062 107.391 22.3594C107.057 21.8073 106.443 21.5312 105.547 21.5312C104.818 21.5312 104.268 21.8177 103.898 22.3906C103.529 22.9583 103.344 23.7474 103.344 24.7578C103.344 25.7578 103.529 26.5286 103.898 27.0703C104.268 27.6068 104.823 27.875 105.562 27.875Z" fill="white"/>
</svg>
