<svg width="32" height="32" viewBox="0 0 32 32" fill="none" xmlns="http://www.w3.org/2000/svg">
<path d="M28 24.6667C28 26.508 26.508 28 24.6667 28H7.33333C5.49267 28 4 26.508 4 24.6667V7.33333C4 5.492 5.49267 4 7.33333 4H24.6667C26.508 4 28 5.492 28 7.33333V24.6667Z" fill="#2566C5"/>
<path opacity="0.05" d="M20.0002 24.6666V17.9339C20.0002 16.8079 19.4542 16.1353 18.5388 16.1353C17.9955 16.1353 17.5962 16.4413 17.3528 17.0446C17.3415 17.0873 17.3255 17.2613 17.3322 17.7873L17.3335 24.6666H12.6668V11.9999H17.3335V12.7073C18.0148 12.2373 18.8502 11.9999 19.8255 11.9999C22.8568 11.9999 24.6662 14.0619 24.6662 17.5159L24.6668 24.6666H20.0002ZM7.3335 24.6666V11.9999H9.63816C8.30283 11.9999 7.3335 11.0186 7.3335 9.66592C7.3335 8.31459 8.31883 7.33325 9.67616 7.33325C11.0175 7.33325 11.9728 8.28725 12.0002 9.65259C12.0002 11.0153 11.0142 11.9999 9.65683 11.9999H12.0002V24.6666H7.3335Z" fill="black"/>
<path opacity="0.07" d="M20.3332 24.3334V17.9341C20.3332 16.6187 19.6458 15.8021 18.5385 15.8021C17.6752 15.8021 17.2485 16.4101 17.0432 16.9201C16.9885 17.0527 16.9958 17.5794 16.9985 17.8041L16.9998 24.3334H12.9998V12.3334H16.9998V13.4254C17.5298 12.8767 18.3832 12.3334 19.8252 12.3334C22.6472 12.3334 24.3325 14.2707 24.3325 17.5161L24.3332 24.3334H20.3332ZM7.6665 24.3334V12.3334H11.6665V24.3334H7.6665ZM9.63784 11.6667C8.49584 11.6667 7.6665 10.8254 7.6665 9.66608C7.6665 8.50741 8.51184 7.66675 9.67584 7.66675C10.8252 7.66675 11.6432 8.48608 11.6665 9.65941C11.6665 10.8254 10.8212 11.6667 9.6565 11.6667H9.63784Z" fill="black"/>
<path d="M8 12.6667H11.3333V24H8V12.6667ZM9.65667 11.3333H9.638C8.64333 11.3333 8 10.592 8 9.666C8 8.72 8.66333 8 9.676 8C10.69 8 11.3147 8.72 11.3333 9.666C11.3333 10.5913 10.69 11.3333 9.65667 11.3333ZM24 24H20.6667V17.934C20.6667 16.4687 19.85 15.4687 18.5387 15.4687C17.538 15.4687 16.9967 16.1433 16.734 16.7953C16.638 17.0287 16.6667 17.674 16.6667 18V24H13.3333V12.6667H16.6667V14.4107C17.1473 13.6667 17.9 12.6667 19.8253 12.6667C22.2107 12.6667 23.9993 14.1667 23.9993 17.516L24 24Z" fill="white"/>
</svg>
