<svg width="41" height="41" viewBox="0 0 41 41" fill="none" xmlns="http://www.w3.org/2000/svg">
<circle cx="20.5" cy="20.5" r="20.5" fill="#FFB248"/>
<path d="M23.7996 18.1997C24.9135 18.1997 25.9818 18.6422 26.7695 19.4299C27.5571 20.2175 27.9996 21.2858 27.9996 22.3997V27.2997H25.1996V22.3997C25.1996 22.0284 25.0521 21.6723 24.7896 21.4098C24.527 21.1472 24.1709 20.9997 23.7996 20.9997C23.4283 20.9997 23.0722 21.1472 22.8097 21.4098C22.5471 21.6723 22.3996 22.0284 22.3996 22.3997V27.2997H19.5996V22.3997C19.5996 21.2858 20.0421 20.2175 20.8298 19.4299C21.6174 18.6422 22.6857 18.1997 23.7996 18.1997Z" fill="#0E2F7A"/>
<path d="M16.8 18.9004H14V27.3004H16.8V18.9004Z" fill="#0E2F7A"/>
<path d="M15.4 16.8C16.1732 16.8 16.8 16.1732 16.8 15.4C16.8 14.6268 16.1732 14 15.4 14C14.6268 14 14 14.6268 14 15.4C14 16.1732 14.6268 16.8 15.4 16.8Z" fill="#0E2F7A"/>
</svg>
