<svg width="162" height="48" viewBox="0 0 162 48" fill="none" xmlns="http://www.w3.org/2000/svg">
<rect width="162" height="48" rx="2" fill="#0035AE"/>
<path d="M29.3438 30H27.7344V19.9609H24.2656V18.5781H32.8047V19.9609H29.3438V30ZM37.6484 21.2422C38.7109 21.2422 39.5052 21.4792 40.0312 21.9531C40.5573 22.4219 40.8203 23.1641 40.8203 24.1797V30H39.6953L39.3906 28.75H39.3281C39.0885 29.0625 38.8385 29.3229 38.5781 29.5312C38.3177 29.7396 38.0156 29.8958 37.6719 30C37.3333 30.1042 36.9193 30.1562 36.4297 30.1562C35.9089 30.1562 35.4453 30.0625 35.0391 29.875C34.6328 29.6875 34.3125 29.4062 34.0781 29.0312C33.849 28.651 33.7344 28.1693 33.7344 27.5859C33.7344 26.7109 34.0703 26.0469 34.7422 25.5938C35.4141 25.1406 36.4323 24.8932 37.7969 24.8516L39.2812 24.7891V24.3047C39.2812 23.6328 39.1302 23.1589 38.8281 22.8828C38.5312 22.6068 38.1146 22.4688 37.5781 22.4688C37.1354 22.4688 36.7109 22.5339 36.3047 22.6641C35.8984 22.7891 35.5078 22.9401 35.1328 23.1172L34.6328 21.9766C35.0391 21.7682 35.5 21.5938 36.0156 21.4531C36.5365 21.3125 37.0807 21.2422 37.6484 21.2422ZM39.2656 25.8203L38.0625 25.875C37.0677 25.9115 36.3672 26.0781 35.9609 26.375C35.5599 26.6667 35.3594 27.0755 35.3594 27.6016C35.3594 28.0599 35.4974 28.3958 35.7734 28.6094C36.0495 28.8229 36.4141 28.9297 36.8672 28.9297C37.5651 28.9297 38.138 28.7344 38.5859 28.3438C39.0391 27.9479 39.2656 27.3646 39.2656 26.5938V25.8203ZM45.0234 30H43.4453V17.8438H45.0234V30ZM49.2578 17.8438V23.9375C49.2578 24.1771 49.2474 24.4505 49.2266 24.7578C49.2109 25.0599 49.1953 25.3385 49.1797 25.5938H49.2344C49.3542 25.4375 49.513 25.2318 49.7109 24.9766C49.9141 24.7214 50.0938 24.5052 50.25 24.3281L53 21.3906H54.8125L51.3594 25.0859L55.0547 30H53.1953L50.2969 26.0703L49.2578 26.9922V30H47.6953V17.8438H49.2578ZM64.5781 30H62.9688V19.9609H59.5V18.5781H68.0391V19.9609H64.5781V30ZM77.1094 25.6797C77.1094 26.388 77.0156 27.0208 76.8281 27.5781C76.6458 28.1302 76.3776 28.599 76.0234 28.9844C75.6745 29.3646 75.2526 29.6562 74.7578 29.8594C74.263 30.0573 73.7031 30.1562 73.0781 30.1562C72.4948 30.1562 71.9583 30.0573 71.4688 29.8594C70.9844 29.6562 70.5651 29.3646 70.2109 28.9844C69.8568 28.599 69.5833 28.1302 69.3906 27.5781C69.1979 27.0208 69.1016 26.388 69.1016 25.6797C69.1016 24.737 69.263 23.9349 69.5859 23.2734C69.9089 22.6068 70.3698 22.1016 70.9688 21.7578C71.5729 21.4089 72.2917 21.2344 73.125 21.2344C73.9167 21.2344 74.612 21.4089 75.2109 21.7578C75.8099 22.1068 76.276 22.612 76.6094 23.2734C76.9427 23.9349 77.1094 24.737 77.1094 25.6797ZM70.7109 25.6797C70.7109 26.3411 70.7943 26.9115 70.9609 27.3906C71.1328 27.8646 71.3932 28.2292 71.7422 28.4844C72.0964 28.7396 72.5521 28.8672 73.1094 28.8672C73.6562 28.8672 74.1068 28.7396 74.4609 28.4844C74.8151 28.2292 75.0755 27.8646 75.2422 27.3906C75.4089 26.9115 75.4922 26.3411 75.4922 25.6797C75.4922 25.0234 75.4089 24.4609 75.2422 23.9922C75.0755 23.5234 74.8151 23.1641 74.4609 22.9141C74.112 22.6641 73.6562 22.5391 73.0938 22.5391C72.2708 22.5391 71.6667 22.8151 71.2812 23.3672C70.901 23.9141 70.7109 24.6849 70.7109 25.6797ZM92.4453 18.5781V25.9688C92.4453 26.7708 92.2786 27.487 91.9453 28.1172C91.6172 28.7474 91.1198 29.2448 90.4531 29.6094C89.7865 29.974 88.9479 30.1562 87.9375 30.1562C86.5052 30.1562 85.4115 29.7734 84.6562 29.0078C83.9062 28.237 83.5312 27.2135 83.5312 25.9375V18.5781H85.1406V25.875C85.1406 26.8385 85.3802 27.5651 85.8594 28.0547C86.3438 28.5443 87.0625 28.7891 88.0156 28.7891C88.6719 28.7891 89.2083 28.6719 89.625 28.4375C90.0417 28.1979 90.349 27.862 90.5469 27.4297C90.75 26.9922 90.8516 26.474 90.8516 25.875V18.5781H92.4453ZM100.906 27.5938C100.906 28.151 100.768 28.6224 100.492 29.0078C100.221 29.388 99.8255 29.6745 99.3047 29.8672C98.7839 30.0599 98.1589 30.1562 97.4297 30.1562C96.8255 30.1562 96.3047 30.1094 95.8672 30.0156C95.4297 29.9271 95.0339 29.7969 94.6797 29.625V28.2344C95.0599 28.4167 95.5 28.5781 96 28.7188C96.5 28.8594 96.9896 28.9297 97.4688 28.9297C98.1406 28.9297 98.625 28.8229 98.9219 28.6094C99.224 28.3958 99.375 28.1068 99.375 27.7422C99.375 27.5286 99.3151 27.3411 99.1953 27.1797C99.0755 27.013 98.8646 26.849 98.5625 26.6875C98.2656 26.5208 97.8385 26.3307 97.2812 26.1172C96.7344 25.9036 96.2656 25.6901 95.875 25.4766C95.4896 25.263 95.1953 25.0052 94.9922 24.7031C94.7891 24.401 94.6875 24.0104 94.6875 23.5312C94.6875 22.7865 94.9844 22.2188 95.5781 21.8281C96.1771 21.4323 96.9661 21.2344 97.9453 21.2344C98.4661 21.2344 98.9557 21.2865 99.4141 21.3906C99.8776 21.4948 100.32 21.6406 100.742 21.8281L100.234 23.0391C99.8594 22.8776 99.474 22.7448 99.0781 22.6406C98.6823 22.5312 98.2786 22.4766 97.8672 22.4766C97.3307 22.4766 96.9193 22.5625 96.6328 22.7344C96.3516 22.9062 96.2109 23.1432 96.2109 23.4453C96.2109 23.6797 96.276 23.875 96.4062 24.0312C96.5417 24.1875 96.7656 24.3411 97.0781 24.4922C97.3906 24.638 97.8125 24.8125 98.3438 25.0156C98.8698 25.2135 99.3229 25.4193 99.7031 25.6328C100.089 25.8464 100.385 26.1068 100.594 26.4141C100.802 26.7214 100.906 27.1146 100.906 27.5938ZM104.328 26.6719H103.211L102.844 18.5781H104.695L104.328 26.6719ZM102.719 29.1094C102.719 28.7135 102.818 28.4349 103.016 28.2734C103.219 28.1068 103.466 28.0234 103.758 28.0234C104.044 28.0234 104.289 28.1068 104.492 28.2734C104.695 28.4349 104.797 28.7135 104.797 29.1094C104.797 29.4948 104.695 29.776 104.492 29.9531C104.289 30.1302 104.044 30.2188 103.758 30.2188C103.466 30.2188 103.219 30.1302 103.016 29.9531C102.818 29.776 102.719 29.4948 102.719 29.1094Z" fill="white"/>
<path d="M132 20L136 24L132 28" stroke="white" stroke-width="1.5" stroke-linecap="round" stroke-linejoin="round"/>
<path d="M116 24H136" stroke="white" stroke-width="1.5" stroke-linecap="round" stroke-linejoin="round"/>
</svg>
