<svg width="41" height="41" viewBox="0 0 41 41" fill="none" xmlns="http://www.w3.org/2000/svg">
<circle cx="20.5" cy="20.5" r="20.5" fill="#FFB248"/>
<path d="M27.3331 15.0401C26.6788 15.5017 25.9542 15.8547 25.1875 16.0856C24.7759 15.6124 24.229 15.277 23.6206 15.1248C23.0122 14.9725 22.3718 15.0108 21.7859 15.2345C21.2 15.4581 20.6969 15.8562 20.3447 16.3751C19.9924 16.894 19.8081 17.5085 19.8165 18.1356V18.8189C18.6156 18.85 17.4257 18.5837 16.3527 18.0436C15.2796 17.5035 14.3569 16.7065 13.6665 15.7234C13.6665 15.7234 10.9331 21.8734 17.0831 24.6067C15.6758 25.562 13.9994 26.041 12.2998 25.9734C18.4498 29.3901 25.9665 25.9734 25.9665 18.1151C25.9658 17.9247 25.9475 17.7349 25.9118 17.5479C26.6092 16.8601 27.1014 15.9918 27.3331 15.0401Z" fill="#0E2F7A"/>
</svg>
