<svg width="130" height="130" viewBox="0 0 130 130" fill="none" xmlns="http://www.w3.org/2000/svg">
<rect x="0.5" y="0.5" width="129" height="129" rx="19.5" fill="#0E1118" stroke="#161B26"/>
<path d="M28.6092 88.3535V88.3999H28.5298L28.6092 88.3535Z" fill="#0E2F7A"/>
<path d="M28.6092 88.3535V88.3999H28.5298L28.6092 88.3535Z" fill="#0E2F7A"/>
<path d="M64.472 31.8852L64.4547 31.8997L64.4272 31.8751L64.4417 31.8606C64.4503 31.8707 64.4633 31.8765 64.472 31.8852Z" fill="#0E2F7A"/>
<path d="M28.0794 88.2415V88.2878H28L28.0794 88.2415Z" fill="#0E2F7A"/>
<path d="M49.4993 95.5085L53.6941 107.878L57.7922 95.5085H60.8961L55.3189 111H51.9971L46.4199 95.5085H49.4993Z" fill="#0E2F7A"/>
<path d="M64.8009 107.806V111H61.5513V107.806H64.8009Z" fill="#0E2F7A"/>
<path d="M69.433 95.5085V111H66.5225V95.5085H69.433Z" fill="#0E2F7A"/>
<path d="M73.7733 105.684V111H70.8628V95.5085H77.5569C80.9032 95.5085 83.1095 97.5338 83.1095 100.584C83.1095 103.564 81.0489 105.684 77.8484 105.684H73.7733ZM73.7733 97.9862V103.11H77.2899C79.0605 103.11 80.1023 102.181 80.1023 100.584C80.1023 98.9407 79.0836 97.9862 77.2899 97.9862H73.7733Z" fill="#0E2F7A"/>
<path d="M64.7636 19C64.7751 19.0128 64.8559 19.0695 64.8675 19.0808C67.4706 21.0678 69.9959 23.2037 72.4201 25.5012C72.8732 25.921 73.322 26.3536 73.7607 26.7862C86.944 39.7461 95.348 55.6417 98.9757 72.3486C98.9844 72.3926 98.993 72.4337 99.006 72.4791C99.068 72.7528 99.1258 73.0294 99.1792 73.3074C99.2412 73.6038 99.3004 73.8988 99.3581 74.1966C99.4245 74.5228 99.488 74.8504 99.55 75.1794C99.6048 75.4659 99.6539 75.7552 99.7044 76.0446C99.8906 77.1182 100.061 78.2003 100.211 79.281C100.251 79.5845 100.289 79.8809 100.332 80.183C100.365 80.451 100.398 80.7177 100.432 80.9857C100.531 81.831 100.618 82.6834 100.697 83.5371C100.771 84.3682 100.833 85.205 100.883 86.0432C100.905 86.3282 100.921 86.6176 100.934 86.8998C100.964 87.4019 100.984 87.8982 101 88.3975H28.6092V88.3535L28.5312 88.3975C28.5356 88.2741 28.5399 88.1479 28.5428 88.0259V88.0046C28.5601 87.6359 28.576 87.27 28.5976 86.8984C28.6092 86.6161 28.6265 86.3268 28.6481 86.0418C28.6597 85.7553 28.6813 85.466 28.7073 85.1766C28.7405 84.6292 28.7852 84.0832 28.8357 83.5357C28.8603 83.2535 28.8906 82.9755 28.9136 82.6947C28.9425 82.4139 28.9728 82.1359 29.0017 81.8551C29.006 81.8466 29.006 81.8381 29.006 81.8338C29.006 81.8338 29.006 81.8338 29.006 81.8296C29.0349 81.5488 29.0724 81.2665 29.1012 80.9843C29.1344 80.7163 29.1676 80.4496 29.2008 80.1816C29.2412 79.8781 29.2787 79.5817 29.322 79.2796C29.4721 78.1946 29.6366 77.1125 29.8285 76.0432C29.879 75.7538 29.9281 75.4645 29.9829 75.178C30.045 74.849 30.107 74.5214 30.1734 74.1952C33.5702 56.8118 42.107 40.2183 55.7708 26.7847C56.2124 26.3508 56.6597 25.9196 57.1113 25.4998C59.5486 23.1895 62.0868 21.0437 64.7059 19.0468" fill="#0E2F7A"/>
<path d="M63.351 75.5369C49.0826 66.7622 49.9873 53.279 50.4145 50.1517C50.4722 49.7334 50.6555 49.3448 50.9368 49.0413L56.0422 43.547C56.5645 42.9839 57.2846 42.6663 58.035 42.6663H71.4967C72.2485 42.6663 72.9671 42.9839 73.4895 43.547L78.5949 49.0413C78.8762 49.3448 79.0609 49.7334 79.1172 50.1517C79.5443 53.2804 80.4491 66.7622 66.1807 75.5369C65.3063 76.0744 64.224 76.0744 63.351 75.5369Z" fill="#FFB248"/>
<path d="M70.0478 65.629H59.4807C58.7029 65.629 58.0737 65.0093 58.0737 64.2463V56.4502C58.0737 55.6857 58.7043 55.0674 59.4807 55.0674H70.0478C70.8255 55.0674 71.4547 55.6872 71.4547 56.4502V64.2463C71.4561 65.0107 70.8255 65.629 70.0478 65.629Z" fill="#0E2F7A"/>
<path d="M64.7649 58.8555C62.622 58.8555 60.8774 57.1422 60.8774 55.0347V52.801C60.8774 50.6949 62.6206 48.9802 64.7649 48.9802C66.9092 48.9802 68.6523 50.6935 68.6523 52.801V55.0347C68.6523 57.1422 66.9077 58.8555 64.7649 58.8555ZM64.7649 51.048C63.7808 51.048 62.9813 51.8351 62.9813 52.801V55.0347C62.9813 56.0019 63.7822 56.7877 64.7649 56.7877C65.7476 56.7877 66.5484 56.0005 66.5484 55.0347V52.801C66.5484 51.8351 65.749 51.048 64.7649 51.048Z" fill="#0E2F7A"/>
<path d="M66.4275 61.4962H63.1013C62.8964 61.4962 62.7319 61.3331 62.7319 61.1331V59.5631C62.7319 59.3618 62.8979 59.2001 63.1013 59.2001H66.4275C66.6324 59.2001 66.7969 59.3632 66.7969 59.5631V61.1331C66.7969 61.3331 66.6324 61.4962 66.4275 61.4962Z" fill="#FFB248"/>
</svg>
